# AST/ASF file generated using VICON BodyLanguage
# -----------------------------------------------
:version 1.10
:name VICON
:units
  mass 1.0
  length 0.45
  angle deg
:documentation
   .ast/.asf automatically generated from VICON data using
   VICON BodyBuilder and BodyLanguage model FoxedUp or BRILLIANT.MOD
:root
   order TX TY TZ RX RY RZ
   axis XYZ
   position 0 0 0  
   orientation 0 0 0 
:bonedata
  begin
     id 1 
     name lhipjoint
     direction 0.612567 -0.751349 0.245431 
     length 2.42285 
     axis 0 0 0  XYZ
  end
  begin
     id 2 
     name lfemur
     direction 0.34202 -0.939693 0  
     length 7.11304  
     axis 0 0 20  XYZ
    dof rx ry rz
    limits (-160.0 20.0)
           (-70.0 70.0)
           (-60.0 70.0)
  end
  begin
     id 3 
     name ltibia
     direction 0.34202 -0.939693 0   
     length 7.84529   
     axis 0 0 20   XYZ
    dof rx
    limits (-10.0 170.0)
  end
  begin
     id 4 
     name lfoot
     direction 0.0779239 -0.214094 0.9737   
     length 1.97176   
     axis -90 7.62852e-016 20   XYZ
    dof rx rz
    limits (-45.0 90.0)
           (-70.0 20.0)
  end
  begin
     id 5 
     name ltoes
     direction 1.53565e-011 -4.21709e-011 1   
     length 0.993197   
     axis -90 7.62852e-016 20   XYZ
    dof rx
    limits (-90.0 20.0)
  end
  begin
     id 6 
     name rhipjoint
     direction -0.665722 -0.709315 0.231701   
     length 2.56642  
     axis 0 0 0  XYZ 
  end
  begin
     id 7 
     name rfemur
     direction -0.34202 -0.939693 0   
     length 7.32108   
     axis 0 0 -20   XYZ
    dof rx ry rz
    limits (-160.0 20.0)
           (-70.0 70.0)
           (-70.0 60.0)
  end
  begin
     id 8 
     name rtibia
     direction -0.34202 -0.939693 0   
     length 7.81254   
     axis 0 0 -20   XYZ
    dof rx
    limits (-10.0 170.0)
 end
 begin
     id 9 
     name rfoot
     direction -0.0832806 -0.228812 0.969902   
     length 2.08278  
     axis -90 -7.62852e-016 -20   XYZ
    dof rx rz
    limits (-45.0 90.0)
           (-20.0 70.0)
  end
  begin
     id 10 
     name rtoes
     direction -1.53589e-011 -4.22086e-011 1   
     length 1.04609   
     axis -90 -7.62852e-016 -20   XYZ
    dof rx
    limits (-90.0 20.0)
  end
  begin
     id 11 
     name lowerback
     direction -0.00506013 0.988403 -0.151766   
     length 2.01978   
     axis 0 0 0   XYZ
    dof rx ry rz
    limits (-20.0 45.0)
           (-30.0 30.0)
           (-30.0 30.0)
  end
  begin
     id 12 
     name upperback
     direction -0.00836389 0.99968 0.0238859   
     length 2.01276   
     axis 0 0 0   XYZ
    dof rx ry rz
    limits (-20.0 45.0)
           (-30.0 30.0)
           (-30.0 30.0)
  end
  begin
     id 13 
     name thorax
     direction -0.00684136 0.995386 0.0957043   
     length 2.07303   
     axis 0 0 0   XYZ
    dof rx ry rz
    limits (-20.0 45.0)
           (-30.0 30.0)
           (-30.0 30.0)
  end
  begin
     id 14 
     name lowerneck
     direction -0.0161045 0.999661 0.0204485   
     length 1.91243   
     axis 0 0 0   XYZ
    dof rx ry rz
    limits (-20.0 45.0)
           (-30.0 30.0)
           (-30.0 30.0)
  end
  begin
     id 15 
     name upperneck
     direction 0.0553583 0.990946 -0.122319   
     length 1.91574   
     axis 0 0 0   XYZ
    dof rx ry rz
    limits (-20.0 45.0)
           (-30.0 30.0)
           (-30.0 30.0)
  end
  begin
     id 16
     name head
     direction 0.0180273 0.998839 -0.0446756  
     length 1.92693  
     axis 0 0 0   XYZ
    dof rx ry rz
    limits (-20.0 45.0)
           (-30.0 30.0)
           (-30.0 30.0)
  end
  begin
     id 17 
     name lclavicle
     direction 0.945646 0.319323 -0.0615358  
     length 4.0076  
     axis 0 0 0   XYZ
    dof ry rz
    limits (-20.0 10.0)
           (0.0 20.0)
  end
  begin
     id 18 
     name lhumerus
     direction 1 -4.48967e-011 -2.79996e-027   
     length 5.64147   
     axis 180 -30 -90   XYZ
    dof rx ry rz
    limits (-60.0 90.0)
           (-90.0 90.0)
           (-90.0 90.0)
  end
  begin
     id 19
     name lradius
     direction 1 -4.48976e-011 -9.5122e-027   
     length 2.86444   
     axis 180 -30 -90   XYZ
    dof rx
    limits (-10.0 170.0)
  end
  begin
     id 20
     name lwrist
     direction 1 -4.48983e-011 -1.24047e-026   
     length 1.43222   
     axis 9.05591e-015 90 90   XYZ
    dof ry
    limits (-180.0 0.0)
 end
  begin
     id 21 
     name lhand
     direction 1 -4.4892e-011 -2.48094e-026   
     length 0.722123   
     axis 1.58305e-014 90 90   XYZ
    dof rx rz
    limits (-90.0 90.0)
           (-45.0 45.0)
  end
  begin
     id 22 
     name lfingers
     direction 1 -4.48895e-011 -4.96187e-026   
     length 0.582194   
     axis 3.1661e-014 90 90   XYZ
    dof rx
    limits (0.0 90.0)
  end
  begin
     id 23
     name lthumb
     direction 0.707107 -6.34961e-011 0.707107   
     length 0.835918   
     axis -90 45 2.85299e-015   XYZ
    dof rx rz
    limits (-45.0 45.0)
           (-45.0 45.0)
  end
  begin
     id 24 
     name rclavicle
     direction -0.932635 0.324218 -0.15835   
     length 3.65819  
     axis 0 0 0   XYZ 
    dof ry rz
    limits (-10.0 20.0)
           (-20.0 0.0)
  end
  begin
     id 25 
     name rhumerus
     direction -1 -4.48965e-011 -4.02296e-027  
     length 5.44729   
     axis 180 30 90   XYZ
    dof rx ry rz
    limits (-90.0 60.0)
           (-90.0 90.0)
           (-90.0 90.0)
  end
  begin
     id 26 
     name rradius
     direction -1 -4.48957e-011 -8.81087e-027   
     length 3.08821   
     axis 180 30 90   XYZ
    dof rx
    limits (-10.0 170.0)
  end
  begin
     id 27 
     name rwrist
     direction -1 -4.49015e-011 -1.24047e-026   
     length 1.5441   
     axis 9.05591e-015 -90 -90   XYZ
    dof ry
    limits (-180.0 0.0)
  end
  begin
     id 28
     name rhand
     direction -1 -4.4891e-011 -2.48094e-026   
     length 0.821049   
     axis 1.58305e-014 -90 -90   XYZ
    dof rx rz
    limits (-90.0 90.0)
           (-45.0 45.0)
  end
  begin
     id 29
     name rfingers
     direction -1 -4.48985e-011 -4.96187e-026   
     length 0.661951   
     axis 3.1661e-014 -90 -90   XYZ
    dof rx
    limits (0.0 90.0)
  end
  begin
     id 30
     name rthumb
     direction -0.707107 -6.34906e-011 0.707107   
     length 0.950433   
     axis -90 -45 -2.85299e-015   XYZ
    dof rx rz
    limits (-45.0 45.0)
           (-45.0 45.0)
  end
:hierarchy
  begin
    root lhipjoint rhipjoint lowerback
    lhipjoint lfemur
    lfemur ltibia
    ltibia lfoot
    lfoot ltoes
    rhipjoint rfemur
    rfemur rtibia
    rtibia rfoot
    rfoot rtoes
    lowerback upperback
    upperback thorax
    thorax lowerneck lclavicle rclavicle
    lowerneck upperneck
    upperneck head
    lclavicle lhumerus
    lhumerus lradius
    lradius lwrist
    lwrist lhand lthumb
    lhand lfingers
    rclavicle rhumerus
    rhumerus rradius
    rradius rwrist
    rwrist rhand rthumb
    rhand rfingers
  end

#!OML:ASF F:\VICON\USERDATA\INSTALL\rory3\rory3.ASF
:FULLY-SPECIFIED
:DEGREES
1400
root 3.46928 17.6199 0.0513894 -222.631 87.5278 -218.604
lowerback 1.08223 -0.923098 4.00259
upperback -2.41182 -1.12964 -0.756603
thorax -3.18646 -0.664856 -2.98068
lowerneck -4.20002 -5.10579 -4.73826
upperneck 4.29536 -6.78645 5.04886
head 2.4824 -3.32097 2.21136
rclavicle 1.10822e-014 -7.95139e-015
rhumerus -74.9055 30.33 -91.1076
rradius 91.355
rwrist -52.4738
rhand 26.3665 6.36601
rfingers 7.12502
rthumb 50.4127 -14.6373
lclavicle 1.10822e-014 -7.95139e-015
lhumerus -18.5317 33.449 18.0214
lradius 95.6988
lwrist 10.6443
lhand -4.75526 37.2866
lfingers 7.12502
lthumb 21.0285 66.1665
rfemur 4.40455 5.8523 17.3045
rtibia 17.0396
rfoot -23.6174 -12.0499
rtoes -7.41546
lfemur 5.75399 0.493234 -18.0884
ltibia 7.72237
lfoot -9.55559 -2.83573
ltoes -0.0439305
1401
root 3.47038 17.6207 0.0502706 -224.334 87.4739 -220.341
lowerback 1.10634 -0.927902 3.93898
upperback -2.43597 -1.13633 -0.764362
thorax -3.22429 -0.667786 -2.95211
lowerneck -4.19818 -5.10059 -4.71388
upperneck 4.31025 -6.77863 4.99311
head 2.48273 -3.31822 2.18872
rclavicle 1.17283e-014 -3.97569e-016
rhumerus -74.9597 30.3246 -91.1116
rradius 91.3767
rwrist -52.5129
rhand 26.3221 6.30651
rfingers 7.12502
rthumb 50.3722 -14.7186
lclavicle 1.17283e-014 -3.97569e-016
lhumerus -18.6454 33.4273 17.901
lradius 95.744
lwrist 10.7146
lhand -4.87901 37.3422
lfingers 7.12502
lthumb 20.9097 66.2352
rfemur 4.34789 5.86391 17.1901
rtibia 17.08
rfoot -23.6243 -12.0542
rtoes -7.03019
lfemur 5.75321 0.508088 -18.1957
ltibia 7.66706
lfoot -9.59143 -2.76344
ltoes -0.494848
1402
root 3.47127 17.6216 0.0499935 -224.104 87.4741 -220.154
lowerback 1.12014 -0.928786 3.98628
upperback -2.4647 -1.13486 -0.766346
thorax -3.26298 -0.669356 -2.98038
lowerneck -4.20866 -5.09494 -4.72229
upperneck 4.33253 -6.77135 5.0029
head 2.49259 -3.31423 2.19349
rclavicle -6.95746e-016 1.31198e-014
rhumerus -75.0238 30.2684 -91.1559
rradius 91.3945
rwrist -52.4499
rhand 26.2566 6.40526
rfingers 7.12502
rthumb 50.3123 -14.6519
lclavicle -6.95746e-016 1.31198e-014
lhumerus -18.7045 33.3849 17.8154
lradius 95.7819
lwrist 10.7342
lhand -5.10212 37.4474
lfingers 7.12502
lthumb 20.6953 66.3639
rfemur 4.27697 5.8557 17.1983
rtibia 17.146
rfoot -23.666 -12.0496
rtoes -6.53071
lfemur 5.7768 0.504781 -18.1936
ltibia 7.54027
lfoot -9.56374 -2.74623
ltoes -0.552395
1403
root 3.47632 17.6203 0.0494791 -224.752 87.394 -220.812
lowerback 1.09366 -0.95688 3.91791
upperback -2.45494 -1.17528 -0.757429
thorax -3.2393 -0.687062 -2.93148
lowerneck -4.24959 -5.06875 -4.74917
upperneck 4.34649 -6.73228 4.97702
head 2.50266 -3.29551 2.19049
rclavicle 4.72114e-015 -2.78299e-015
rhumerus -75.0099 30.2893 -91.1531
rradius 91.3804
rwrist -52.4386
rhand 26.194 6.45625
rfingers 7.12502
rthumb 50.2551 -14.6315
lclavicle 4.72114e-015 -2.78299e-015
lhumerus -18.788 33.3916 17.7515
lradius 95.8079
lwrist 10.6833
lhand -5.17365 37.4053
lfingers 7.12502
lthumb 20.6266 66.3294
rfemur 4.2846 5.81896 17.1188
rtibia 17.1899
rfoot -23.8149 -11.9104
rtoes -6.16432
lfemur 5.81189 0.469244 -18.2781
ltibia 7.48211
lfoot -9.53347 -2.75985
ltoes -0.530758
1404
root 3.48133 17.6198 0.0477624 -224.892 87.3391 -220.969
lowerback 1.04181 -0.96878 3.89532
upperback -2.43012 -1.1942 -0.747704
thorax -3.18498 -0.694402 -2.90896
lowerneck -4.24145 -5.0602 -4.74554
upperneck 4.29029 -6.71761 4.93744
head 2.47945 -3.2897 2.17774
rclavicle -6.5102e-015 -1.31198e-014
rhumerus -75.0022 30.2836 -91.1241
rradius 91.3954
rwrist -52.5065
rhand 26.1541 6.42994
rfingers 7.12502
rthumb 50.2186 -14.6772
lclavicle -6.5102e-015 -1.31198e-014
lhumerus -18.7807 33.469 17.7818
lradius 95.819
lwrist 10.5966
lhand -5.10967 37.3836
lfingers 7.12502
lthumb 20.688 66.3009
rfemur 4.28602 5.78472 17.06
rtibia 17.1989
rfoot -23.7762 -11.9335
rtoes -6.57418
lfemur 5.80102 0.436154 -18.3279
ltibia 7.48879
lfoot -9.52469 -2.79493
ltoes -0.28029
1405
root 3.48408 17.6189 0.0466363 -223.278 87.36 -219.374
lowerback 1.05026 -0.977073 3.99585
upperback -2.43068 -1.20119 -0.71101
thorax -3.19262 -0.699997 -2.92709
lowerneck -4.21757 -5.04908 -4.79299
upperneck 4.22368 -6.6989 4.93943
head 2.45405 -3.28185 2.18859
rclavicle 3.77691e-015 -4.37326e-015
rhumerus -75.0079 30.3043 -91.1068
rradius 91.4252
rwrist -52.5765
rhand 26.0779 6.30549
rfingers 7.12502
rthumb 50.1489 -14.8387
lclavicle 3.77691e-015 -4.37326e-015
lhumerus -18.7298 33.4799 17.8222
lradius 95.8324
lwrist 10.5379
lhand -5.16468 37.4972
lfingers 7.12502
lthumb 20.6352 66.4203
rfemur 4.26795 5.74733 17.1332
rtibia 17.2082
rfoot -23.7909 -11.9492
rtoes -6.67662
lfemur 5.78496 0.400195 -18.2474
ltibia 7.48111
lfoot -9.49075 -2.80702
ltoes -0.105472
1406
root 3.48656 17.6188 0.0449857 -223.002 87.3507 -219.08
lowerback 1.09302 -0.979056 4.03926
upperback -2.42913 -1.20049 -0.692072
thorax -3.21577 -0.700948 -2.93126
lowerneck -4.1688 -5.0347 -4.85545
upperneck 4.16311 -6.67674 4.95383
head 2.42721 -3.27248 2.20692
rclavicle -7.45443e-016 -9.93923e-015
rhumerus -75.0233 30.2954 -91.0698
rradius 91.4647
rwrist -52.585
rhand 26.0206 6.33091
rfingers 7.12502
rthumb 50.0965 -14.841
lclavicle -7.45443e-016 -9.93923e-015
lhumerus -18.7064 33.4677 17.8532
lradius 95.8602
lwrist 10.5708
lhand -5.30608 37.6286
lfingers 7.12502
lthumb 20.4993 66.5664
rfemur 4.3118 5.73248 17.1383
rtibia 17.1869
rfoot -23.801 -11.9606
rtoes -6.72275
lfemur 5.77246 0.383137 -18.242
ltibia 7.54729
lfoot -9.54417 -2.79608
ltoes -0.415768
